<svg xmlns="http://www.w3.org/2000/svg" xmlns:xlink="http://www.w3.org/1999/xlink" width="176.158" height="216" viewBox="0 0 176.158 216"><defs><filter id="a" x="29.263" y="11" width="70" height="64" filterUnits="userSpaceOnUse"><feOffset dy="3" input="SourceAlpha"/><feGaussianBlur stdDeviation="3" result="b"/><feFlood flood-color="#2f4d70"/><feComposite operator="in" in2="b"/><feComposite in="SourceGraphic"/></filter><filter id="c" x="73.937" y="32.403" width="102.221" height="69.434" filterUnits="userSpaceOnUse"><feOffset dy="3" input="SourceAlpha"/><feGaussianBlur stdDeviation="3" result="d"/><feFlood flood-color="#2f4d70"/><feComposite operator="in" in2="d"/><feComposite in="SourceGraphic"/></filter><filter id="e" x="0" y="57.987" width="58.316" height="102.22" filterUnits="userSpaceOnUse"><feOffset dy="3" input="SourceAlpha"/><feGaussianBlur stdDeviation="3" result="f"/><feFlood flood-color="#2f4d70"/><feComposite operator="in" in2="f"/><feComposite in="SourceGraphic"/></filter><filter id="g" x="9.263" y="58" width="110" height="158" filterUnits="userSpaceOnUse"><feOffset dy="3" input="SourceAlpha"/><feGaussianBlur stdDeviation="3" result="h"/><feFlood/><feComposite operator="in" in2="h"/><feComposite in="SourceGraphic"/></filter></defs><g transform="translate(9)"><path d="M4,0,8,24H0Z" transform="translate(51.263 6)" fill="#5c7a9d"/><rect width="18" height="22" transform="translate(46.263 46)" fill="#4f4e5a"/><g transform="matrix(1, 0, 0, 1, -9, 0)" filter="url(#a)"><rect width="52" height="46" rx="20" transform="translate(38.26 17)" fill="#80a6d2"/></g><g transform="matrix(1, 0, 0, 1, -9, 0)" filter="url(#c)"><rect width="24" height="81" rx="12" transform="translate(91.54 89.84) rotate(-111)" fill="#80a6d2"/></g><g transform="matrix(1, 0, 0, 1, -9, 0)" filter="url(#e)"><rect width="24" height="81" rx="12" transform="translate(25.84 63.99) rotate(12)" fill="#80a6d2"/></g><circle cx="4" cy="4" r="4" transform="translate(51.263)" fill="#5c7a9d"/><path d="M4,0H4A4,4,0,0,1,8,4V8A0,0,0,0,1,8,8H0A0,0,0,0,1,0,8V4A4,4,0,0,1,4,0Z" transform="translate(40.263 28)" fill="#10f100"/><path d="M4,0H4A4,4,0,0,1,8,4V8A0,0,0,0,1,8,8H0A0,0,0,0,1,0,8V4A4,4,0,0,1,4,0Z" transform="translate(63.263 28)" fill="#10f100"/><g transform="translate(34.263 163)" fill="rgba(255,255,255,0)" stroke="#6de6ff" stroke-width="1"><ellipse cx="21" cy="3" rx="21" ry="3" stroke="none"/><ellipse cx="21" cy="3" rx="20.5" ry="2.5" fill="none"/></g><g transform="translate(39.263 170)" fill="rgba(255,255,255,0)" stroke="#6de6ff" stroke-width="1"><ellipse cx="16" cy="2.5" rx="16" ry="2.5" stroke="none"/><ellipse cx="16" cy="2.5" rx="15.5" ry="2" fill="none"/></g><g transform="translate(43.263 176)" fill="rgba(255,255,255,0)" stroke="#6de6ff" stroke-width="1"><ellipse cx="12" cy="2" rx="12" ry="2" stroke="none"/><ellipse cx="12" cy="2" rx="11.5" ry="1.5" fill="none"/></g><g transform="matrix(1, 0, 0, 1, -9, 0)" filter="url(#g)"><path d="M27,57.828c6.027-18.343,31.974-18.343,38,0l18.377,55.929a20,20,0,0,1-19,26.243H27.623a20,20,0,0,1-19-26.243Z" transform="translate(110.26 204) rotate(180)" fill="#80a6d2"/></g></g></svg>