<svg xmlns="http://www.w3.org/2000/svg" xmlns:xlink="http://www.w3.org/1999/xlink" width="121.836" height="134" viewBox="0 0 121.836 134"><defs><filter id="a" x="52.574" y="22.362" width="69.263" height="52.006" filterUnits="userSpaceOnUse"><feOffset dy="3" input="SourceAlpha"/><feGaussianBlur stdDeviation="3" result="b"/><feFlood flood-color="#2f4d70"/><feComposite operator="in" in2="b"/><feComposite in="SourceGraphic"/></filter><filter id="c" x="0" y="36.493" width="56.428" height="68.832" filterUnits="userSpaceOnUse"><feOffset dy="3" input="SourceAlpha"/><feGaussianBlur stdDeviation="3" result="d"/><feFlood flood-color="#2f4d70"/><feComposite operator="in" in2="d"/><feComposite in="SourceGraphic"/></filter><filter id="e" x="27.616" y="33" width="54" height="90" filterUnits="userSpaceOnUse"><feOffset dy="3" input="SourceAlpha"/><feGaussianBlur stdDeviation="3" result="f"/><feFlood/><feComposite operator="in" in2="f"/><feComposite in="SourceGraphic"/></filter><filter id="g" x="28.616" y="6" width="52" height="56" filterUnits="userSpaceOnUse"><feOffset dy="3" input="SourceAlpha"/><feGaussianBlur stdDeviation="3" result="h"/><feFlood flood-color="#2f4d70"/><feComposite operator="in" in2="h"/><feComposite in="SourceGraphic"/></filter></defs><g transform="translate(9)"><g transform="matrix(1, 0, 0, 1, -9, 0)" filter="url(#a)"><rect width="18" height="48" rx="9" transform="translate(68.02 62.37) rotate(-111)" fill="#2196f3"/></g><g transform="matrix(1, 0, 0, 1, -9, 0)" filter="url(#c)"><rect width="18" height="48" rx="9" transform="translate(31.53 42.49) rotate(28)" fill="#2196f3"/></g><g transform="matrix(1, 0, 0, 1, -9, 0)" filter="url(#e)"><rect width="36" height="72" rx="18" transform="translate(36.62 39)" fill="#2196f3"/></g><g transform="translate(33.616 117)" fill="rgba(255,255,255,0)" stroke="#6de6ff" stroke-width="1"><ellipse cx="12" cy="3" rx="12" ry="3" stroke="none"/><ellipse cx="12" cy="3" rx="11.5" ry="2.5" fill="none"/></g><g transform="translate(38.616 124)" fill="rgba(255,255,255,0)" stroke="#6de6ff" stroke-width="1"><ellipse cx="7" cy="2.5" rx="7" ry="2.5" stroke="none"/><ellipse cx="7" cy="2.5" rx="6.5" ry="2" fill="none"/></g><g transform="translate(42.616 130)" fill="rgba(255,255,255,0)" stroke="#6de6ff" stroke-width="1"><ellipse cx="3" cy="2" rx="3" ry="2" stroke="none"/><ellipse cx="3" cy="2" rx="2.5" ry="1.5" fill="none"/></g><path d="M4,0,8,24H0Z" transform="translate(41.616 4)" fill="#5c7a9d"/><g transform="matrix(1, 0, 0, 1, -9, 0)" filter="url(#g)"><rect width="34" height="38" rx="17" transform="translate(37.62 12)" fill="#2196f3"/></g><ellipse cx="2" cy="3" rx="2" ry="3" transform="translate(43.616)" fill="#5c7a9d"/><path d="M4,0H4A4,4,0,0,1,8,4V8A0,0,0,0,1,8,8H0A0,0,0,0,1,0,8V4A4,4,0,0,1,4,0Z" transform="translate(33.616 18)" fill="#10f100"/><path d="M4,0H4A4,4,0,0,1,8,4V8A0,0,0,0,1,8,8H0A0,0,0,0,1,0,8V4A4,4,0,0,1,4,0Z" transform="translate(50.616 18)" fill="#10f100"/></g></svg>