<svg xmlns="http://www.w3.org/2000/svg" xmlns:xlink="http://www.w3.org/1999/xlink" width="111.714" height="124.715" viewBox="0 0 111.714 124.715"><defs><filter id="a" x="50.938" y="5.374" width="60.776" height="67.413" filterUnits="userSpaceOnUse"><feOffset dy="3" input="SourceAlpha"/><feGaussianBlur stdDeviation="3" result="b"/><feFlood flood-color="#2f4d70"/><feComposite operator="in" in2="b"/><feComposite in="SourceGraphic"/></filter><filter id="c" x="0" y="0" width="52.67" height="69.248" filterUnits="userSpaceOnUse"><feOffset dy="3" input="SourceAlpha"/><feGaussianBlur stdDeviation="3" result="d"/><feFlood flood-color="#2f4d70"/><feComposite operator="in" in2="d"/><feComposite in="SourceGraphic"/></filter><filter id="e" x="24.737" y="25.715" width="54" height="90" filterUnits="userSpaceOnUse"><feOffset dy="3" input="SourceAlpha"/><feGaussianBlur stdDeviation="3" result="f"/><feFlood/><feComposite operator="in" in2="f"/><feComposite in="SourceGraphic"/></filter></defs><g transform="translate(9 6)"><g transform="matrix(1, 0, 0, 1, -9, -6)" filter="url(#a)"><rect width="18" height="48" rx="9" transform="matrix(-0.81, -0.59, 0.59, -0.81, 74.5, 60.79)" fill="#2196f3"/></g><g transform="matrix(1, 0, 0, 1, -9, -6)" filter="url(#c)"><rect width="18" height="48" rx="9" transform="translate(43.67 50.5) rotate(158)" fill="#2196f3"/></g><g transform="matrix(1, 0, 0, 1, -9, -6)" filter="url(#e)"><rect width="36" height="72" rx="18" transform="translate(33.74 31.72)" fill="#2196f3"/></g><g transform="translate(29.737 101.715)" fill="none" stroke="#6de6ff" stroke-width="1"><ellipse cx="13" cy="3" rx="13" ry="3" stroke="none"/><ellipse cx="13" cy="3" rx="12.5" ry="2.5" fill="none"/></g><g transform="translate(34.737 108.715)" fill="none" stroke="#6de6ff" stroke-width="1"><ellipse cx="8" cy="2.5" rx="8" ry="2.5" stroke="none"/><ellipse cx="8" cy="2.5" rx="7.5" ry="2" fill="none"/></g><g transform="translate(38.737 114.715)" fill="none" stroke="#6de6ff" stroke-width="1"><ellipse cx="4" cy="2" rx="4" ry="2" stroke="none"/><ellipse cx="4" cy="2" rx="3.5" ry="1.5" fill="none"/></g></g></svg>